After realizing the desperately low number of Greek movies in TPB, I am beginning with an effort to encode my greek movie DVDs and share them with the world. This is my second torrent, I would appreciate your comments.


MOVIE:

Sweet Bunch (1983) 
Glykia symmoria (original title)
154 min  -  Crime | Drama | Thriller   -  19 October 1983 (Greece)

Director: Nikos Nikolaidis
Writer: Nikos Nikolaidis
Stars: Takis Spiridakis, Despina Tomazani, Dora Masklavanou and Takis Moschos

The diary of the life and death of a group of \"amoral\" young people, who have reached the point of no return and seek something to believe in and to die for. Their behavior brings them to the attention of the State. A discreet surveillance begins. A vigilante group monitors their house, headed by a nameless blonde man.
 
http://www.imdb.com/title/tt0085599/


Spoken Language: Greek
Subtitles: English (external srt file)


ENCODING PARAMETERS:

Video
ID                               : 1
Format                           : AVC
Format/Info                      : Advanced Video Codec
Format profile                   : High@L3.0
Format settings, CABAC           : Yes
Format settings, ReFrames        : 4 frames
Codec ID                         : avc1
Codec ID/Info                    : Advanced Video Coding
Duration                         : 2h 26mn
Bit rate                         : 1 198 Kbps
Maximum bit rate                 : 3 364 Kbps
Width                            : 592 pixels
Height                           : 432 pixels
Display aspect ratio             : 1.370
Frame rate mode                  : Constant
Frame rate                       : 25.000 fps
Color space                      : YUV
Chroma subsampling               : 4:2:0
Bit depth                        : 8 bits
Scan type                        : Progressive
Bits/(Pixel*Frame)               : 0.187
Stream size                      : 1.23 GiB (90%)
Writing library                  : x264 core 93 r1538bm bd72d46
Encoded date                     : UTC 2012-01-10 21:04:52
Tagged date                      : UTC 2012-01-10 21:10:21

Audio
ID                               : 2
Format                           : AAC
Format/Info                      : Advanced Audio Codec
Format profile                   : LC
Codec ID                         : 40
Duration                         : 2h 26mn
Bit rate mode                    : Variable
Bit rate                         : 125 Kbps
Maximum bit rate                 : 161 Kbps
Channel(s)                       : 2 channels
Channel positions                : Front: L R
Sampling rate                    : 48.0 KHz
Compression mode                 : Lossy
Stream size                      : 131 MiB (9%)
Encoded date                     : UTC 2012-01-10 21:10:03
Tagged date                      : UTC 2012-01-10 21:10:21


Please help me with seeding!